<?xml version="1.0" encoding="UTF-8"?>
<svg id="Ebene_2" xmlns="http://www.w3.org/2000/svg" version="1.1" viewBox="0 0 1026.9 390.3">
  <!-- Generator: Adobe Illustrator 30.1.0, SVG Export Plug-In . SVG Version: 2.1.1 Build 136)  -->
  <defs>
    <style>
      .st0 {
        fill: #fff;
      }

      .st1 {
        fill: #fea300;
      }

      .st2 {
        fill: purple;
      }
    </style>
  </defs>
  <rect class="st1" width="1026.9" height="314.1"/>
  <g>
    <path class="st2" d="M35.1,31.3h102.2c68.8,0,108.7,47.3,108.7,119.9s-34.4,119.5-111.5,119.5H35.1V31.3ZM186.6,148.7c0-54.5-23-69.4-56.3-69.4h-38.2v143.1h39.3c34.4,0,55.2-19.8,55.2-73.7Z"/>
    <path class="st2" d="M266.1,31.3h57v239.4h-57V31.3Z"/>
    <path class="st2" d="M385.2,207.1c20.5,0,34.4,14.9,34.4,33.3s-13.8,33.7-34.4,33.7-34.4-14.9-34.4-33.7,14.2-33.3,34.4-33.3h0Z"/>
    <path class="st2" d="M447.4,31.3h71.2c66.4,0,102.5,44.8,102.5,119.2s-35.4,120.2-103.9,120.2h-69.8V31.3ZM603.2,150.1c0-68.1-30.3-103.6-87.2-103.6h-51.4v208.8h50.1c59.1,0,88.6-37.2,88.6-105.3h0Z"/>
    <path class="st2" d="M713.6,31.3h20.2l85.5,239.4h-18.8l-24.6-69.8h-106.3l-24.6,69.8h-17.7l86.5-239.4h0ZM771.6,185.8l-48.7-137.2-48.7,137.2h97.3Z"/>
    <path class="st2" d="M879,176.8l-79.5-145.6h19.1l69.4,129.2,68.8-129.2h18.4l-79.2,145.6v93.8h-17v-93.8h0Z"/>
  </g>
  <g>
    <polygon class="st0" points="1020.4 307.8 902.3 189.7 900.2 189.7 889.5 200.5 889.5 365.2 901.5 365.2 925.1 338.8 934.1 330.1 945.9 344 946.6 355.3 955 361.2 963.4 386.1 980.3 382.4 987.6 375.6 987.6 363.6 977.9 349.2 968.3 328.1 968.3 319.1 1012.5 319.1 1020.4 307.8"/>
    <g>
      <path d="M906.6,184.2v9.7h11.1v10.9h-11.1v-10.9h-10.9v164h10.9v10.9h-10.9v11.1h-10.7v-185.8h10.7v-9.7h10.9Z"/>
      <path d="M1016,303.2h-10.9v-11.1h10.9v11.1h11.1v10.9h-11.1v11.1h-43.8v11.1h-10.9v-22h54.6v-10.9h.1v-.2Z"/>
      <path d="M939.7,335.8h-11.1v-10.9h11.1v10.9h10.9v22h11.1v21.8h21.7v-21.7h-10.9v-21.7h10.9v21.7h11.1v21.7h-11.1v10.3h-21.7v-10.3h-11.1v-21.8h-10.9v-22Z"/>
      <path d="M917.7,346.8v-10.9h11.1v10.9h-11.1v11.1h-10.8l-.3-.3v-10.3c.2-.3.4-.3.7-.3,2.9-.3,7.1,0,10.2,0h.1Z"/>
      <path d="M928.7,215.6h-11.1v-10.9h11.1v10.9h10.9v11.1h11.1v10.9h-11.1v-10.9h-10.9v-11.1Z"/>
      <path d="M961.5,248.5h-11.1v-10.9h11.1v10.9h10.9v11.1h-10.9v-11.1h0Z"/>
      <path d="M994.2,281.3h-11.1v-10.9h11.1v10.9h10.9v11.1h-10.9v-11.1Z"/>
      <rect x="972.4" y="259.4" width="10.9" height="10.9"/>
    </g>
  </g>
</svg>